<?xml version="1.0" standalone="no"?>
<!DOCTYPE svg PUBLIC "-//W3C//DTD SVG 20010904//EN"
 "http://www.w3.org/TR/2001/REC-SVG-20010904/DTD/svg10.dtd">
<svg version="1.0" xmlns="http://www.w3.org/2000/svg"
 width="154.000000pt" height="175.000000pt" viewBox="0 0 154.000000 175.000000"
 preserveAspectRatio="xMidYMid meet">

<g transform="translate(0.000000,175.000000) scale(0.100000,-0.100000)"
fill="#000000" stroke="none">
<path d="M240 899 c0 -468 4 -849 8 -847 5 1 97 66 205 143 l197 140 0 377 c0
208 3 378 6 378 13 0 244 -125 244 -132 0 -4 -27 -26 -60 -49 l-61 -42 1 -219
1 -219 320 -159 319 -160 0 224 0 225 -27 19 c-16 10 -72 41 -125 68 -54 27
-98 52 -98 56 0 4 27 26 60 49 l60 42 0 222 0 222 -147 71 c-82 39 -318 154
-525 256 l-378 185 0 -850z"/>
</g>
</svg>
